<?xml version="1.0" standalone="no"?>
<!DOCTYPE svg PUBLIC "-//W3C//DTD SVG 20010904//EN"
 "http://www.w3.org/TR/2001/REC-SVG-20010904/DTD/svg10.dtd">
<svg version="1.0" xmlns="http://www.w3.org/2000/svg"
 width="32.000000pt" height="32.000000pt" viewBox="0 0 32.000000 32.000000"
 preserveAspectRatio="xMidYMid meet">

<g transform="translate(0.000000,32.000000) scale(0.100000,-0.100000)"
fill="#ffffff" stroke="none">
<path d="M215 250 c-15 -16 -31 -29 -34 -28 -3 1 -13 -2 -21 -5 -8 -3 -34 -11
-56 -17 -45 -11 -70 -32 -59 -50 4 -7 16 -9 26 -7 16 4 19 1 17 -20 -2 -19 6
-33 34 -56 45 -36 62 -28 78 37 14 55 29 86 57 117 23 25 23 26 5 42 -17 16
-20 15 -47 -13z"/>
</g>
</svg>
